<?xml version="1.0" encoding="utf-8"?>
<!-- Generator: Adobe Illustrator 21.0.2, SVG Export Plug-In . SVG Version: 6.00 Build 0)  -->
<svg version="1.1"
	 id="Слой_1" xmlns:cc="http://creativecommons.org/ns#" xmlns:dc="http://purl.org/dc/elements/1.1/" xmlns:inkscape="http://www.inkscape.org/namespaces/inkscape" xmlns:rdf="http://www.w3.org/1999/02/22-rdf-syntax-ns#" xmlns:sodipodi="http://sodipodi.sourceforge.net/DTD/sodipodi-0.dtd" xmlns:svg="http://www.w3.org/2000/svg"
	 xmlns="http://www.w3.org/2000/svg" xmlns:xlink="http://www.w3.org/1999/xlink" x="0px" y="0px" viewBox="0 0 58 78"
	 style="enable-background:new 0 0 58 78;fill:#fc7279;" xml:space="preserve">
<g transform="translate(0,-952.36218)">
	<path d="M13,952.4c-0.8,0-1,0.7-1,1.2l0.5,2.8H4c-2.2,0-4,1.8-4,4v66c0,2.2,1.8,4,4,4h50c2.2,0,4-1.8,4-4v-66c0-2.2-1.8-4-4-4h-8.5
		l0.5-2.8c0.1-0.6-0.4-1.2-1-1.2H13z M14.2,954.4h29.6l-1.7,10H15.9L14.2,954.4z M4,958.4h8.8l1.2,7.2c0.1,0.5,0.5,0.8,1,0.8h28
		c0.5,0,0.9-0.4,1-0.8l1.2-7.2H54c1.1,0,2,0.9,2,2v66c0,1.1-0.9,2-2,2H4c-1.1,0-2-0.9-2-2v-66C2,959.2,2.9,958.4,4,958.4z M18,985.4
		c-0.2,0-0.5,0.1-0.7,0.3c-0.4,0.4-0.6,0.8,0,1.4l10.2,10.2l-10.3,10.3c-0.4,0.4-0.4,1,0,1.4c0.4,0.4,1,0.4,1.4,0L29,998.8
		l10.3,10.3c0.4,0.4,1,0.4,1.4,0c0.4-0.4,0.4-1.1,0-1.4l-10.3-10.3l10.2-10.2c0.5-0.6,0.4-1,0-1.4c-0.4-0.4-0.8-0.5-1.4,0L29,996
		l-10.2-10.2C18.5,985.5,18.2,985.4,18,985.4z"/>
</g>
</svg>
