<?xml version="1.0" encoding="utf-8"?>
<!-- Generator: Adobe Illustrator 21.0.2, SVG Export Plug-In . SVG Version: 6.00 Build 0)  -->
<svg version="1.1" id="Capa_1" xmlns="http://www.w3.org/2000/svg" xmlns:xlink="http://www.w3.org/1999/xlink" x="0px" y="0px"
	 viewBox="0 0 284.9 284.9" style="enable-background:new 0 0 284.9 284.9;" xml:space="preserve">
<g>
	<g>
		<path d="M149,117c-1.9-1.9-4.1-2.8-6.6-2.8c-2.5,0-4.7,1-6.6,2.9L2.9,250.2c-1.9,1.9-2.8,4.1-2.8,6.6c0,2.5,1,4.7,2.9,6.6
			l14.3,14.3c1.9,1.9,4.1,2.9,6.6,2.8c2.5,0,4.7-1,6.6-2.9l112.2-112.3l112.3,112.1c1.9,1.9,4.1,2.9,6.6,2.8c2.5,0,4.7-1,6.6-2.9
			l14.3-14.3c1.9-1.9,2.9-4.1,2.9-6.6c0-2.5-1-4.7-2.9-6.6L149,117z"/>
		<path d="M17.1,167.9c1.9,1.9,4.1,2.9,6.6,2.8c2.5,0,4.7-1,6.6-2.9L142.4,55.7l112.3,112.1c1.9,1.9,4.1,2.9,6.6,2.8
			c2.5,0,4.7-1,6.6-2.9l14.3-14.3c1.9-1.9,2.9-4.1,2.9-6.6c0-2.5-1-4.7-2.9-6.6L149,7.4c-1.9-1.9-4.1-2.9-6.6-2.9
			c-2.5,0-4.7,1-6.6,2.9L2.8,140.5c-1.9,1.9-2.8,4.1-2.8,6.6c0,2.5,1,4.7,2.9,6.6L17.1,167.9z"/>
	</g>
</g>
</svg>
