<?xml version="1.0" encoding="iso-8859-1"?>
<!-- Generator: Adobe Illustrator 21.0.2, SVG Export Plug-In . SVG Version: 6.00 Build 0)  -->
<svg version="1.1" id="&#x421;&#x43B;&#x43E;&#x439;_1"
	 xmlns="http://www.w3.org/2000/svg" xmlns:xlink="http://www.w3.org/1999/xlink" x="0px" y="0px" viewBox="0 0 79 40"
	 style="enable-background:new 0 0 79 40;" xml:space="preserve">
<path style="fill-rule:evenodd;clip-rule:evenodd;fill:#456E72;" d="M65.815,22.069c0,0.435-0.167,0.787-0.5,1.055
	c-0.278,0.222-0.569,0.333-0.875,0.333H54.011v-2.82c-7.398,12.617-21.725,19.762-33.915,18.785
	c-0.414-5.164,0.625-10.716,2.919-15.965h-8.176c-0.444,0-0.796-0.167-1.055-0.499c-0.222-0.277-0.333-0.573-0.333-0.887v-4.157
	c0-0.453,0.167-0.808,0.5-1.067c0.268-0.213,0.565-0.319,0.889-0.319h9.026c0.444,0,0.796,0.166,1.055,0.499
	c0.222,0.277,0.333,0.573,0.333,0.887v1.185C31.648,8.347,43.534-0.116,58.961,0.504c0.237,5.892-0.848,11.269-2.878,16.024h8.343
	c0.435,0,0.787,0.171,1.055,0.514c0.222,0.287,0.333,0.579,0.333,0.875H55.455L55.4,19.291h10.415v1.389H55.4v1.389H65.815
	L65.815,22.069z M23.865,21.641L23.865,21.641v-3.724h-9.026v4.152h8.816L23.865,21.641L23.865,21.641z M51.97,22.052L51.97,22.052
	v-4.143c0-0.313-0.111-0.607-0.332-0.884c-0.258-0.331-0.609-0.497-1.052-0.497l-0.454,0l-4.024,5.734l-4.074-5.734l-0.442,0
	c-0.295,0-0.586,0.111-0.872,0.332c-0.341,0.267-0.512,0.617-0.512,1.049v4.143c0,0.313,0.111,0.607,0.332,0.884
	c0.258,0.332,0.609,0.497,1.052,0.497v-5.521l3.805,5.521h1.384l3.805-5.521v5.521c0.314,0,0.609-0.111,0.886-0.332
	C51.804,22.843,51.97,22.493,51.97,22.052L51.97,22.052z M38.439,22.069L38.439,22.069V20.68c0-0.315-0.111-0.611-0.333-0.889
	c-0.259-0.333-0.611-0.5-1.056-0.5h-9.026v-1.374h10.415c0-0.315-0.111-0.611-0.333-0.889c-0.259-0.333-0.611-0.5-1.056-0.5h-9.026
	c-0.324,0-0.62,0.106-0.889,0.318c-0.333,0.258-0.5,0.614-0.5,1.066v1.384c0,0.295,0.111,0.586,0.334,0.872
	c0.268,0.342,0.62,0.512,1.055,0.512h9.026v1.389H26.636c0,0.305,0.107,0.597,0.32,0.875c0.259,0.342,0.616,0.514,1.069,0.514h9.026
	c0.296,0,0.588-0.111,0.875-0.333C38.268,22.855,38.439,22.504,38.439,22.069L38.439,22.069z M79,17.917L79,17.917h-5.208v5.54
	h-1.389v-5.54h-5.207c0-0.435,0.171-0.787,0.514-1.055c0.287-0.222,0.579-0.333,0.875-0.333h9.026c0.444,0,0.796,0.167,1.055,0.5
	C78.889,17.306,79,17.602,79,17.917L79,17.917z M11.804,23.457L11.804,23.457h-1.389V20.68H1.389v2.777H0v-6.929h1.389v2.763h7.638
	l1.389-2.763l1.384-0.002l-1.389,2.763c0.39,0.055,0.71,0.19,0.961,0.403c0.288,0.25,0.432,0.579,0.432,0.986V23.457z"/>
</svg>
